<svg xmlns="http://www.w3.org/2000/svg" xmlns:xlink="http://www.w3.org/1999/xlink" width="1404" zoomAndPan="magnify" viewBox="0 0 1053 551.249983" height="735" preserveAspectRatio="xMidYMid meet" version="1.0"><defs><clipPath id="4f28589249"><path d="M 0.714844 0.234375 L 1051.53125 0.234375 L 1051.53125 550.257812 L 0.714844 550.257812 Z M 0.714844 0.234375 " clip-rule="nonzero"/></clipPath><clipPath id="fe152e326b"><path d="M 157.828125 157.136719 L 894.519531 157.136719 L 894.519531 550.257812 L 157.828125 550.257812 Z M 157.828125 157.136719 " clip-rule="nonzero"/></clipPath></defs><g clip-path="url(#4f28589249)"><path fill="#111212" d="M 525.953125 0.234375 C 816.117188 0.234375 1051.53125 235.140625 1051.53125 525.085938 C 1051.53125 533.476562 1051.195312 541.863281 1050.859375 550.257812 L 1.386719 550.257812 C 1.050781 541.863281 0.714844 533.476562 0.714844 525.085938 C 0.714844 235.140625 236.132812 0.234375 525.953125 0.234375 " fill-opacity="1" fill-rule="evenodd"/></g><g clip-path="url(#fe152e326b)"><path fill="#111212" d="M 893.351562 550.257812 L 158.890625 550.257812 C 158.222656 541.863281 157.882812 533.476562 157.882812 525.085938 C 157.882812 321.722656 322.777344 157.285156 525.953125 157.285156 C 729.46875 157.285156 894.363281 321.722656 894.363281 525.085938 C 894.363281 533.476562 894.027344 541.863281 893.351562 550.257812 " fill-opacity="1" fill-rule="evenodd"/></g><path fill="#ffffff" d="M 866.488281 522.402344 C 865.144531 335.816406 713.347656 185.140625 525.953125 185.140625 C 338.898438 185.140625 187.101562 335.816406 185.757812 522.402344 L 866.488281 522.402344 " fill-opacity="1" fill-rule="evenodd"/><path fill="#f8c317" d="M 531.328125 25.402344 C 660.285156 26.746094 783.871094 77.753906 875.890625 168.023438 L 782.863281 261.320312 C 717.714844 197.894531 629.050781 158.628906 531.328125 157.285156 L 531.328125 25.402344 " fill-opacity="1" fill-rule="evenodd"/><path fill="#f47318" d="M 176.355469 168.027344 C 268.371094 77.753906 391.957031 26.75 520.917969 25.40625 L 520.917969 157.289062 C 423.191406 158.628906 334.53125 197.894531 269.378906 261.320312 L 176.355469 168.027344 " fill-opacity="1" fill-rule="evenodd"/><path fill="#e42a27" d="M 157.882812 525.085938 L 26.238281 525.085938 C 26.238281 394.210938 77.285156 268.699219 168.96875 175.410156 L 261.992188 268.699219 C 197.511719 334.8125 157.882812 425.417969 157.882812 525.085938 " fill-opacity="1" fill-rule="evenodd"/><path fill="#82b128" d="M 883.277344 175.410156 C 974.960938 268.699219 1026.007812 394.210938 1026.007812 525.085938 L 894.359375 525.085938 C 894.359375 425.417969 854.734375 334.8125 790.253906 268.699219 L 883.277344 175.410156 " fill-opacity="1" fill-rule="evenodd"/><path fill="#ffffff" d="M 110.195312 428.101562 L 108.851562 431.457031 L 97.097656 426.757812 L 98.441406 423.40625 C 99.785156 420.050781 102.472656 419.378906 106.503906 420.722656 C 110.195312 422.398438 111.539062 424.746094 110.195312 428.101562 Z M 117.921875 431.125 C 121.277344 422.734375 118.257812 416.019531 109.859375 412.328125 C 101.128906 408.972656 94.414062 411.996094 91.054688 420.050781 L 86.351562 431.792969 L 125.980469 447.902344 L 129.339844 439.847656 L 116.578125 434.476562 L 117.921875 431.125 " fill-opacity="1" fill-rule="nonzero"/><path fill="#ffffff" d="M 146.804688 336.824219 L 145.460938 340.179688 L 134.375 335.816406 L 135.722656 332.460938 C 137.0625 329.441406 139.414062 328.769531 143.109375 330.113281 C 146.804688 331.789062 148.144531 334.140625 146.804688 336.824219 Z M 170.308594 339.507812 L 174.003906 330.78125 L 155.871094 332.128906 C 155.199219 327.765625 151.839844 324.070312 146.46875 322.058594 C 138.070312 318.367188 131.355469 321.050781 127.996094 329.105469 L 123.292969 340.515625 L 163.257812 356.960938 L 166.617188 348.90625 L 153.183594 343.535156 L 154.191406 340.515625 L 170.308594 339.507812 " fill-opacity="1" fill-rule="nonzero"/><path fill="#ffffff" d="M 135.722656 403.269531 C 134.714844 406.289062 132.027344 407.296875 128.332031 405.617188 L 114.226562 399.914062 C 110.53125 398.238281 109.1875 395.886719 110.195312 392.867188 C 111.539062 389.847656 114.226562 389.171875 117.921875 390.851562 L 132.027344 396.558594 C 135.722656 397.902344 137.0625 400.25 135.722656 403.269531 Z M 135.382812 388.167969 L 121.277344 382.464844 C 112.882812 379.109375 105.832031 381.792969 102.472656 389.847656 C 99.113281 397.902344 102.136719 404.613281 110.867188 408.304688 L 124.972656 414.007812 C 133.371094 417.367188 140.421875 414.679688 143.78125 406.625 C 147.136719 398.570312 143.78125 391.523438 135.382812 388.167969 " fill-opacity="1" fill-rule="nonzero"/><path fill="#ffffff" d="M 148.480469 372.730469 C 147.136719 375.753906 144.453125 376.425781 140.757812 375.082031 L 126.652344 369.375 C 122.957031 367.699219 121.613281 365.347656 122.957031 362.328125 C 123.964844 359.308594 126.652344 358.636719 130.347656 360.316406 L 144.453125 366.019531 C 148.144531 367.363281 149.488281 369.710938 148.480469 372.730469 Z M 147.808594 357.628906 L 134.042969 351.925781 C 125.308594 348.234375 118.257812 351.253906 114.898438 359.308594 C 111.875 367.363281 114.898438 374.078125 123.292969 377.765625 L 137.398438 383.472656 C 145.792969 386.824219 152.847656 384.140625 156.203125 376.085938 C 159.5625 368.03125 156.542969 360.988281 147.808594 357.628906 " fill-opacity="1" fill-rule="nonzero"/><path fill="#ffffff" d="M 364.082031 132.789062 L 367.109375 136.816406 L 362.070312 139.5 L 360.726562 134.46875 C 360.054688 131.445312 358.375 126.414062 357.367188 123.058594 C 359.382812 126.078125 362.40625 130.4375 364.082031 132.789062 Z M 348.636719 115.003906 L 357.367188 158.628906 L 365.765625 154.605469 L 363.75 147.554688 L 372.144531 143.863281 L 376.507812 149.570312 L 384.570312 145.875 L 357.035156 111.3125 L 348.636719 115.003906 " fill-opacity="1" fill-rule="nonzero"/><path fill="#ffffff" d="M 395.652344 131.449219 L 392.632812 132.792969 L 381.546875 108.964844 L 384.230469 107.621094 C 387.253906 106.277344 389.605469 107.285156 391.285156 110.976562 L 397.332031 123.730469 C 399.007812 127.421875 398.339844 130.105469 395.652344 131.449219 Z M 405.390625 120.039062 L 399.347656 107.285156 C 395.316406 99.230469 388.597656 96.546875 380.875 100.238281 L 370.128906 105.269531 L 388.261719 144.203125 L 399.007812 139.167969 C 406.734375 135.476562 409.085938 128.425781 405.390625 120.039062 " fill-opacity="1" fill-rule="nonzero"/><path fill="#ffffff" d="M 340.574219 157.285156 L 337.554688 158.628906 L 333.523438 150.242188 L 336.882812 148.5625 C 339.90625 147.21875 342.253906 147.890625 343.597656 150.914062 C 344.605469 153.597656 343.933594 155.609375 340.574219 157.285156 Z M 330.164062 142.523438 L 326.472656 134.46875 L 329.15625 133.125 C 331.84375 132.121094 333.523438 132.789062 334.867188 135.476562 C 336.207031 138.160156 335.539062 140.171875 333.1875 141.179688 Z M 342.929688 140.84375 C 344.273438 138.160156 343.933594 134.46875 342.589844 131.445312 C 339.570312 124.738281 333.1875 122.386719 327.140625 125.074219 L 315.054688 130.777344 L 333.1875 169.703125 L 345.613281 164 C 352.332031 160.980469 354.679688 153.933594 351.660156 146.882812 C 349.980469 143.53125 346.621094 141.179688 342.929688 140.84375 " fill-opacity="1" fill-rule="nonzero"/><path fill="#ffffff" d="M 650.214844 111.648438 L 644.167969 125.742188 C 642.492188 129.433594 640.140625 130.777344 637.117188 129.433594 C 634.429688 128.089844 633.761719 125.40625 635.101562 121.714844 L 641.148438 107.957031 C 642.828125 104.265625 645.171875 102.921875 648.199219 104.265625 C 651.222656 105.605469 651.894531 107.957031 650.214844 111.648438 Z M 651.558594 96.210938 C 643.5 92.855469 636.78125 95.875 633.085938 104.265625 L 627.042969 118.019531 C 623.347656 126.75 626.035156 133.792969 633.761719 137.152344 C 641.816406 140.507812 648.871094 137.824219 652.5625 129.097656 L 658.609375 115.335938 C 662.304688 106.949219 659.617188 99.902344 651.558594 96.210938 " fill-opacity="1" fill-rule="nonzero"/><path fill="#ffffff" d="M 624.6875 85.472656 L 620.660156 94.53125 C 619.316406 98.222656 616.628906 105.269531 615.289062 110.640625 L 614.949219 110.640625 C 615.289062 107.621094 615.289062 104.601562 615.621094 101.917969 L 615.289062 81.445312 L 607.558594 78.089844 L 590.433594 117.351562 L 598.15625 121.046875 L 601.851562 112.988281 C 603.53125 108.625 606.550781 100.910156 607.898438 95.875 L 608.234375 95.542969 L 607.558594 106.953125 L 607.558594 125.070312 L 615.621094 128.425781 L 632.75 88.828125 L 624.6875 85.472656 " fill-opacity="1" fill-rule="nonzero"/><path fill="#ffffff" d="M 725.441406 129.097656 L 713.011719 141.515625 C 711.332031 143.191406 708.3125 145.875 707.304688 147.21875 L 706.972656 147.21875 C 707.304688 145.539062 707.304688 141.515625 707.304688 139.164062 L 707.640625 121.378906 L 699.582031 118.023438 L 682.453125 157.625 L 690.175781 160.976562 L 694.542969 151.246094 C 696.558594 146.210938 698.242188 141.515625 700.25 136.480469 L 700.589844 136.480469 L 699.582031 148.5625 L 699.242188 154.601562 L 706.972656 157.957031 L 711.332031 153.59375 L 719.394531 144.871094 L 719.730469 144.871094 C 717.378906 149.570312 715.027344 154.265625 713.011719 158.964844 L 708.648438 168.695312 L 716.371094 172.054688 L 733.5 132.789062 L 725.441406 129.097656 " fill-opacity="1" fill-rule="nonzero"/><path fill="#ffffff" d="M 673.378906 128.765625 L 670.019531 127.085938 L 674.730469 116.347656 L 678.082031 117.691406 C 680.769531 119.03125 681.445312 121.378906 680.101562 125.074219 C 678.421875 128.765625 676.070312 129.773438 673.378906 128.765625 Z M 688.15625 128.765625 C 691.855469 120.375 689.167969 113.660156 681.445312 109.972656 L 670.019531 105.273438 L 652.898438 144.535156 L 660.957031 148.226562 L 666.667969 134.804688 L 669.355469 136.148438 L 670.019531 151.917969 L 678.757812 155.945312 L 677.746094 137.824219 C 682.113281 137.152344 685.808594 134.132812 688.15625 128.765625 " fill-opacity="1" fill-rule="nonzero"/><path fill="#ffffff" d="M 776.484375 151.246094 L 768.421875 147.890625 L 751.296875 187.152344 L 771.109375 195.878906 L 774.472656 188.160156 L 762.714844 183.128906 L 776.484375 151.246094 " fill-opacity="1" fill-rule="nonzero"/><path fill="#ffffff" d="M 743.574219 161.984375 L 742.570312 166.683594 L 737.527344 164.335938 L 740.21875 160.308594 C 742.234375 157.625 744.921875 153.257812 746.597656 150.238281 L 746.929688 150.238281 C 745.925781 153.59375 744.585938 158.628906 743.574219 161.984375 Z M 746.597656 138.496094 L 720.066406 173.730469 L 728.464844 177.421875 L 732.492188 171.382812 L 740.890625 175.074219 L 739.546875 182.121094 L 747.605469 185.808594 L 755.328125 142.1875 L 746.597656 138.496094 " fill-opacity="1" fill-rule="nonzero"/><path fill="#ffffff" d="M 943.054688 406.625 L 929.960938 411.996094 C 926.261719 413.675781 923.578125 413 922.234375 409.980469 L 920.890625 407.296875 L 945.410156 396.894531 L 946.753906 399.914062 C 947.757812 402.933594 946.753906 405.28125 943.054688 406.625 Z M 954.136719 396.558594 L 949.769531 385.820312 L 910.144531 402.261719 L 914.511719 413.335938 C 917.867188 421.054688 924.917969 423.742188 933.316406 420.382812 L 946.414062 414.679688 C 954.808594 411.324219 957.496094 404.613281 954.136719 396.558594 " fill-opacity="1" fill-rule="nonzero"/><path fill="#ffffff" d="M 909.480469 380.449219 C 908.132812 377.429688 909.480469 375.082031 913.167969 373.738281 L 927.273438 367.699219 C 930.964844 366.355469 933.652344 367.027344 934.660156 370.046875 C 936.007812 373.066406 934.660156 375.417969 930.964844 376.757812 L 916.859375 382.800781 C 913.167969 384.140625 910.480469 383.472656 909.480469 380.449219 Z M 920.554688 390.851562 L 934.324219 385.148438 C 943.058594 381.792969 946.082031 374.746094 942.722656 366.691406 C 939.363281 358.636719 932.3125 355.953125 923.582031 359.308594 L 909.808594 365.347656 C 901.082031 368.703125 898.058594 375.753906 901.417969 383.804688 C 904.773438 391.859375 911.828125 394.542969 920.554688 390.851562 " fill-opacity="1" fill-rule="nonzero"/><path fill="#ffffff" d="M 894.363281 330.78125 L 904.433594 326.417969 L 899.058594 313.667969 L 892.007812 316.6875 L 894.023438 321.722656 L 891.003906 322.726562 C 887.640625 324.070312 885.628906 323.398438 884.285156 320.382812 C 882.941406 317.695312 883.953125 315.683594 887.640625 314.003906 L 903.089844 307.628906 C 906.449219 306.289062 908.796875 306.957031 909.808594 309.640625 C 910.8125 312.664062 909.808594 314.339844 906.449219 316.019531 L 909.808594 324.070312 C 918.203125 320.382812 920.890625 314.339844 917.53125 306.621094 C 914.171875 298.566406 907.792969 295.882812 899.398438 299.242188 L 883.953125 305.617188 C 875.886719 309.308594 873.203125 315.683594 876.5625 323.734375 C 879.582031 331.457031 885.96875 333.804688 894.363281 330.78125 " fill-opacity="1" fill-rule="nonzero"/><path fill="#ffffff" d="M 896.710938 349.914062 C 895.367188 346.890625 896.710938 344.542969 900.40625 343.199219 L 914.511719 337.160156 C 918.207031 335.816406 920.890625 336.488281 922.234375 339.507812 C 923.242188 342.527344 921.894531 344.878906 918.207031 346.222656 L 904.433594 352.261719 C 900.40625 353.605469 898.054688 352.933594 896.710938 349.914062 Z M 907.792969 360.648438 L 921.5625 354.609375 C 930.296875 351.253906 933.316406 344.207031 929.957031 336.152344 C 926.597656 328.097656 919.542969 325.414062 911.152344 328.769531 L 897.046875 334.8125 C 888.648438 338.167969 885.628906 345.214844 888.648438 353.269531 C 892.011719 361.320312 899.398438 364.007812 907.792969 360.648438 " fill-opacity="1" fill-rule="nonzero"/><path fill="#ffffff" d="M 902.085938 232.792969 L 760.363281 412.328125 L 692.1875 324.070312 L 902.085938 232.792969 " fill-opacity="1" fill-rule="evenodd"/><path fill="#111212" d="M 679.089844 419.378906 C 679.089844 434.816406 672.039062 442.871094 659.277344 442.871094 C 646.179688 442.871094 639.460938 434.816406 639.460938 419.378906 L 639.460938 337.496094 C 639.460938 321.722656 646.179688 313.667969 659.277344 313.667969 C 672.039062 313.667969 679.089844 321.722656 679.089844 337.496094 Z M 659.277344 278.769531 C 624.351562 278.769531 603.53125 300.582031 603.53125 337.496094 L 603.53125 419.378906 C 603.53125 456.292969 624.351562 477.769531 659.277344 477.769531 C 694.203125 477.769531 715.023438 456.292969 715.023438 419.378906 L 715.023438 337.496094 C 715.023438 300.582031 694.203125 278.769531 659.277344 278.769531 " fill-opacity="1" fill-rule="nonzero"/><path fill="#111212" d="M 544.085938 419.378906 C 544.085938 434.816406 537.371094 442.871094 524.277344 442.871094 C 511.175781 442.871094 504.796875 434.816406 504.796875 419.378906 L 504.796875 337.496094 C 504.796875 321.722656 511.175781 313.667969 524.277344 313.667969 C 537.371094 313.667969 544.085938 321.722656 544.085938 337.496094 Z M 524.277344 278.769531 C 489.351562 278.769531 468.53125 300.582031 468.53125 337.496094 L 468.53125 419.378906 C 468.53125 456.292969 489.351562 477.769531 524.277344 477.769531 C 559.539062 477.769531 580.359375 456.292969 580.359375 419.378906 L 580.359375 337.496094 C 580.359375 300.582031 559.539062 278.769531 524.277344 278.769531 " fill-opacity="1" fill-rule="nonzero"/><path fill="#111212" d="M 410.09375 421.054688 C 410.09375 435.484375 404.046875 441.523438 392.292969 441.523438 C 380.539062 441.523438 374.496094 435.484375 374.496094 421.054688 L 374.496094 412.664062 C 374.496094 398.570312 380.539062 392.53125 392.292969 392.53125 C 404.046875 392.53125 410.09375 398.570312 410.09375 412.664062 Z M 377.519531 332.796875 C 377.519531 319.710938 382.554688 314.339844 392.292969 314.339844 C 402.03125 314.339844 407.410156 319.710938 407.410156 332.796875 L 407.410156 338.164062 C 407.410156 351.589844 402.03125 357.628906 392.292969 357.628906 C 382.554688 357.628906 377.519531 351.589844 377.519531 338.164062 Z M 428.898438 373.066406 C 438.304688 363 444.011719 350.246094 444.011719 337.160156 L 444.011719 331.117188 C 444.011719 299.238281 423.191406 278.097656 392.292969 278.097656 C 361.398438 278.097656 340.578125 299.238281 340.578125 331.117188 L 340.578125 337.160156 C 340.578125 350.246094 346.289062 363.671875 355.351562 373.402344 C 344.273438 381.792969 337.21875 396.558594 337.21875 412.664062 L 337.21875 421.390625 C 337.21875 456.964844 359.382812 478.441406 392.292969 478.441406 C 425.207031 478.441406 447.371094 456.964844 447.371094 421.390625 L 447.371094 412.664062 C 447.371094 396.222656 440.320312 381.457031 428.898438 373.066406 " fill-opacity="1" fill-rule="nonzero"/></svg>