<svg xmlns="http://www.w3.org/2000/svg" xmlns:xlink="http://www.w3.org/1999/xlink" width="1404" zoomAndPan="magnify" viewBox="0 0 1053 596.249986" height="795" preserveAspectRatio="xMidYMid meet" version="1.0"><defs><clipPath id="53f62be1b3"><path d="M 1 0 L 538 0 L 538 595.5 L 1 595.5 Z M 1 0 " clip-rule="nonzero"/></clipPath><clipPath id="ca48b8bf7b"><path d="M 513 0 L 1051.589844 0 L 1051.589844 595.5 L 513 595.5 Z M 513 0 " clip-rule="nonzero"/></clipPath></defs><path fill="#80b93d" d="M 578.632812 87.574219 L 578.632812 24.695312 C 578.632812 20.667969 581.78125 17.515625 585.808594 17.515625 L 1016.191406 17.515625 C 1025.820312 17.515625 1033.695312 25.394531 1033.695312 35.03125 L 1033.695312 560.472656 C 1033.695312 570.105469 1025.820312 577.984375 1016.191406 577.984375 L 585.808594 577.984375 C 581.78125 577.984375 578.632812 574.832031 578.632812 570.804688 L 578.632812 507.925781 L 648.640625 472.898438 L 648.640625 105.089844 Z M 578.632812 87.574219 " fill-opacity="1" fill-rule="nonzero"/><path fill="#bfe76e" d="M 963.6875 157.632812 L 963.6875 437.867188 C 963.6875 443.121094 960.011719 447.675781 954.757812 448.550781 C 940.582031 450.652344 927.980469 458.011719 918.878906 468.167969 C 911.351562 476.75 906.277344 487.261719 904.703125 498.996094 C 903.828125 504.25 899.101562 507.925781 893.851562 507.925781 L 578.632812 507.925781 L 607.335938 464.839844 C 611.011719 459.410156 610.3125 452.054688 605.585938 447.328125 L 534.875 376.566406 C 529.976562 371.664062 529.449219 363.605469 534 358 L 590.535156 287.242188 C 594.035156 283.039062 594.558594 277.082031 592.109375 272.179688 L 565.679688 219.109375 C 562.878906 213.855469 563.929688 207.375 568.304688 202.996094 L 621.339844 149.925781 C 626.765625 144.496094 626.765625 135.738281 621.339844 130.308594 L 578.632812 87.574219 L 893.851562 87.574219 C 899.101562 87.574219 903.828125 91.25 904.703125 96.507812 C 906.277344 108.242188 911.351562 118.75 918.878906 127.332031 C 927.980469 137.492188 940.582031 144.847656 954.757812 146.949219 C 960.011719 147.824219 963.6875 152.378906 963.6875 157.632812 Z M 963.6875 157.632812 " fill-opacity="1" fill-rule="nonzero"/><path fill="#80b93d" d="M 473.617188 507.925781 L 473.617188 570.804688 C 473.617188 574.832031 470.46875 577.984375 466.441406 577.984375 L 36.058594 577.984375 C 26.429688 577.984375 18.554688 570.105469 18.554688 560.472656 L 18.554688 35.03125 C 18.554688 25.394531 26.429688 17.515625 36.058594 17.515625 L 466.441406 17.515625 C 470.46875 17.515625 473.617188 20.667969 473.617188 24.695312 L 473.617188 87.574219 L 403.609375 192.660156 L 403.609375 402.839844 Z M 473.617188 507.925781 " fill-opacity="1" fill-rule="nonzero"/><path fill="#bfe76e" d="M 463.292969 202.996094 C 458.917969 207.375 457.867188 213.855469 460.667969 219.109375 L 487.09375 272.179688 C 489.546875 277.082031 489.019531 283.039062 485.519531 287.242188 L 428.988281 358 C 424.4375 363.605469 424.960938 371.664062 429.863281 376.566406 L 500.570312 447.328125 C 505.296875 452.054688 505.996094 459.410156 502.320312 464.839844 L 473.617188 507.925781 L 158.398438 507.925781 C 153.148438 507.925781 148.421875 504.25 147.546875 498.996094 C 145.972656 487.261719 140.898438 476.75 133.371094 468.167969 C 124.269531 458.011719 111.667969 450.652344 97.492188 448.550781 C 92.242188 447.675781 88.566406 443.121094 88.566406 437.867188 L 88.566406 157.632812 C 88.566406 152.378906 92.242188 147.824219 97.492188 146.949219 C 111.667969 144.847656 124.269531 137.492188 133.371094 127.332031 C 140.898438 118.75 145.972656 108.242188 147.546875 96.507812 C 148.421875 91.25 153.148438 87.574219 158.398438 87.574219 L 473.617188 87.574219 L 516.324219 130.308594 C 521.75 135.738281 521.75 144.496094 516.324219 149.925781 Z M 463.292969 202.996094 " fill-opacity="1" fill-rule="nonzero"/><path fill="#80b93d" d="M 246.085938 297.75 C 246.085938 299.472656 246.015625 301.1875 245.875 302.902344 C 245.734375 304.613281 245.527344 306.3125 245.246094 308 C 244.964844 309.6875 244.617188 311.355469 244.203125 313.003906 C 243.785156 314.648438 243.304688 316.269531 242.757812 317.859375 C 242.207031 319.449219 241.597656 321 240.921875 322.519531 C 240.246094 324.039062 239.507812 325.511719 238.710938 326.941406 C 237.917969 328.375 237.0625 329.753906 236.15625 331.085938 C 235.246094 332.414062 234.285156 333.6875 233.269531 334.90625 C 232.257812 336.121094 231.195312 337.277344 230.089844 338.367188 C 228.980469 339.460938 227.832031 340.484375 226.640625 341.4375 C 225.449219 342.394531 224.222656 343.277344 222.957031 344.089844 C 221.695312 344.902344 220.398438 345.636719 219.074219 346.292969 C 217.75 346.953125 216.402344 347.53125 215.03125 348.03125 C 213.660156 348.53125 212.273438 348.949219 210.867188 349.285156 C 209.460938 349.621094 208.046875 349.871094 206.621094 350.042969 C 205.195312 350.210938 203.765625 350.292969 202.332031 350.292969 C 200.898438 350.292969 199.46875 350.210938 198.042969 350.042969 C 196.617188 349.871094 195.199219 349.621094 193.792969 349.285156 C 192.390625 348.949219 191 348.53125 189.628906 348.03125 C 188.257812 347.53125 186.910156 346.953125 185.585938 346.292969 C 184.261719 345.636719 182.96875 344.902344 181.703125 344.089844 C 180.441406 343.277344 179.210938 342.394531 178.019531 341.4375 C 176.828125 340.484375 175.679688 339.460938 174.574219 338.367188 C 173.464844 337.277344 172.402344 336.121094 171.390625 334.90625 C 170.378906 333.6875 169.417969 332.414062 168.507812 331.085938 C 167.597656 329.753906 166.746094 328.375 165.949219 326.941406 C 165.152344 325.511719 164.417969 324.039062 163.742188 322.519531 C 163.066406 321 162.453125 319.449219 161.90625 317.859375 C 161.355469 316.269531 160.875 314.648438 160.457031 313.003906 C 160.042969 311.355469 159.695312 309.6875 159.414062 308 C 159.136719 306.3125 158.925781 304.613281 158.785156 302.902344 C 158.644531 301.1875 158.574219 299.472656 158.574219 297.75 C 158.574219 296.03125 158.644531 294.3125 158.785156 292.601562 C 158.925781 290.886719 159.136719 289.1875 159.414062 287.5 C 159.695312 285.8125 160.042969 284.144531 160.457031 282.496094 C 160.875 280.851562 161.355469 279.234375 161.90625 277.644531 C 162.453125 276.054688 163.066406 274.5 163.742188 272.980469 C 164.417969 271.464844 165.152344 269.988281 165.949219 268.558594 C 166.746094 267.128906 167.597656 265.746094 168.507812 264.417969 C 169.417969 263.085938 170.378906 261.8125 171.390625 260.597656 C 172.402344 259.378906 173.464844 258.226562 174.574219 257.132812 C 175.679688 256.042969 176.828125 255.019531 178.019531 254.0625 C 179.210938 253.105469 180.441406 252.222656 181.703125 251.410156 C 182.96875 250.597656 184.261719 249.863281 185.585938 249.207031 C 186.910156 248.546875 188.257812 247.96875 189.628906 247.46875 C 191 246.96875 192.390625 246.550781 193.792969 246.214844 C 195.199219 245.878906 196.617188 245.628906 198.042969 245.460938 C 199.46875 245.289062 200.898438 245.207031 202.332031 245.207031 C 203.765625 245.207031 205.195312 245.289062 206.621094 245.460938 C 208.046875 245.628906 209.460938 245.878906 210.867188 246.214844 C 212.273438 246.550781 213.660156 246.96875 215.03125 247.46875 C 216.402344 247.96875 217.75 248.546875 219.074219 249.207031 C 220.398438 249.863281 221.695312 250.597656 222.957031 251.410156 C 224.222656 252.222656 225.449219 253.105469 226.640625 254.0625 C 227.832031 255.019531 228.980469 256.042969 230.089844 257.132812 C 231.195312 258.226562 232.257812 259.378906 233.269531 260.597656 C 234.285156 261.8125 235.246094 263.085938 236.15625 264.417969 C 237.0625 265.746094 237.917969 267.128906 238.710938 268.558594 C 239.507812 269.988281 240.246094 271.464844 240.921875 272.980469 C 241.597656 274.5 242.207031 276.054688 242.757812 277.644531 C 243.304688 279.234375 243.785156 280.851562 244.203125 282.496094 C 244.617188 284.144531 244.964844 285.8125 245.246094 287.5 C 245.527344 289.1875 245.734375 290.886719 245.875 292.601562 C 246.015625 294.3125 246.085938 296.03125 246.085938 297.75 Z M 246.085938 297.75 " fill-opacity="1" fill-rule="nonzero"/><path fill="#80b93d" d="M 893.675781 297.75 C 893.675781 299.472656 893.605469 301.1875 893.464844 302.902344 C 893.324219 304.613281 893.113281 306.3125 892.835938 308 C 892.554688 309.6875 892.207031 311.355469 891.792969 313.003906 C 891.375 314.648438 890.894531 316.269531 890.34375 317.859375 C 889.796875 319.449219 889.183594 321 888.507812 322.519531 C 887.832031 324.039062 887.097656 325.511719 886.300781 326.941406 C 885.503906 328.375 884.652344 329.753906 883.742188 331.085938 C 882.835938 332.414062 881.875 333.6875 880.859375 334.90625 C 879.847656 336.121094 878.785156 337.277344 877.679688 338.367188 C 876.570312 339.460938 875.421875 340.484375 874.230469 341.4375 C 873.039062 342.394531 871.808594 343.277344 870.546875 344.089844 C 869.28125 344.902344 867.988281 345.636719 866.664062 346.292969 C 865.339844 346.953125 863.992188 347.53125 862.621094 348.03125 C 861.25 348.53125 859.863281 348.949219 858.457031 349.285156 C 857.050781 349.621094 855.636719 349.871094 854.207031 350.042969 C 852.78125 350.210938 851.351562 350.292969 849.921875 350.292969 C 848.488281 350.292969 847.058594 350.210938 845.632812 350.042969 C 844.203125 349.871094 842.789062 349.621094 841.382812 349.285156 C 839.976562 348.949219 838.589844 348.53125 837.21875 348.03125 C 835.847656 347.53125 834.5 346.953125 833.175781 346.292969 C 831.851562 345.636719 830.558594 344.902344 829.292969 344.089844 C 828.03125 343.277344 826.800781 342.394531 825.609375 341.4375 C 824.417969 340.484375 823.269531 339.460938 822.160156 338.367188 C 821.054688 337.277344 819.992188 336.121094 818.980469 334.90625 C 817.964844 333.6875 817.003906 332.414062 816.097656 331.085938 C 815.1875 329.753906 814.335938 328.375 813.539062 326.941406 C 812.742188 325.511719 812.007812 324.039062 811.332031 322.519531 C 810.65625 321 810.042969 319.449219 809.496094 317.859375 C 808.945312 316.269531 808.464844 314.648438 808.046875 313.003906 C 807.632812 311.355469 807.285156 309.6875 807.003906 308 C 806.726562 306.3125 806.515625 304.613281 806.375 302.902344 C 806.234375 301.1875 806.164062 299.472656 806.164062 297.75 C 806.164062 296.03125 806.234375 294.3125 806.375 292.601562 C 806.515625 290.886719 806.726562 289.1875 807.003906 287.5 C 807.285156 285.8125 807.632812 284.144531 808.046875 282.496094 C 808.464844 280.851562 808.945312 279.234375 809.496094 277.644531 C 810.042969 276.054688 810.65625 274.5 811.332031 272.980469 C 812.007812 271.464844 812.742188 269.988281 813.539062 268.558594 C 814.335938 267.128906 815.1875 265.746094 816.097656 264.417969 C 817.003906 263.085938 817.964844 261.8125 818.980469 260.597656 C 819.992188 259.378906 821.054688 258.226562 822.160156 257.132812 C 823.269531 256.042969 824.417969 255.019531 825.609375 254.0625 C 826.800781 253.105469 828.03125 252.222656 829.292969 251.410156 C 830.558594 250.597656 831.851562 249.863281 833.175781 249.207031 C 834.5 248.546875 835.847656 247.96875 837.21875 247.46875 C 838.589844 246.96875 839.976562 246.550781 841.382812 246.214844 C 842.789062 245.878906 844.203125 245.628906 845.632812 245.460938 C 847.058594 245.289062 848.488281 245.207031 849.921875 245.207031 C 851.351562 245.207031 852.78125 245.289062 854.207031 245.460938 C 855.636719 245.628906 857.050781 245.878906 858.457031 246.214844 C 859.863281 246.550781 861.25 246.96875 862.621094 247.46875 C 863.992188 247.96875 865.339844 248.546875 866.664062 249.207031 C 867.988281 249.863281 869.28125 250.597656 870.546875 251.410156 C 871.808594 252.222656 873.039062 253.105469 874.230469 254.0625 C 875.421875 255.019531 876.570312 256.042969 877.679688 257.132812 C 878.785156 258.226562 879.847656 259.378906 880.859375 260.597656 C 881.875 261.8125 882.835938 263.085938 883.742188 264.417969 C 884.652344 265.746094 885.503906 267.128906 886.300781 268.558594 C 887.097656 269.988281 887.832031 271.464844 888.507812 272.980469 C 889.183594 274.5 889.796875 276.054688 890.34375 277.644531 C 890.894531 279.234375 891.375 280.851562 891.792969 282.496094 C 892.207031 284.144531 892.554688 285.8125 892.835938 287.5 C 893.113281 289.1875 893.324219 290.886719 893.464844 292.601562 C 893.605469 294.3125 893.675781 296.03125 893.675781 297.75 Z M 893.675781 297.75 " fill-opacity="1" fill-rule="nonzero"/><path fill="#80b93d" d="M 463.292969 202.996094 C 458.917969 207.375 457.867188 213.855469 460.667969 219.109375 L 487.09375 272.179688 C 489.546875 277.082031 489.019531 283.039062 485.519531 287.242188 L 428.988281 358 C 424.4375 363.605469 424.960938 371.664062 429.863281 376.566406 L 500.570312 447.328125 C 501.972656 448.726562 502.847656 450.128906 503.546875 451.878906 C 493.921875 454.15625 483.945312 455.382812 473.617188 455.382812 C 396.257812 455.382812 333.597656 384.796875 333.597656 297.75 C 333.597656 210.703125 396.257812 140.117188 473.617188 140.117188 C 489.019531 140.117188 503.898438 142.921875 517.722656 148.175781 C 517.375 148.875 516.847656 149.402344 516.324219 149.925781 Z M 463.292969 202.996094 " fill-opacity="1" fill-rule="nonzero"/><path fill="#80b93d" d="M 718.652344 297.75 C 718.652344 373.238281 671.570312 436.292969 608.5625 451.878906 C 607.863281 450.128906 606.988281 448.726562 605.585938 447.328125 L 534.875 376.566406 C 529.976562 371.664062 529.449219 363.605469 534 358 L 590.535156 287.242188 C 594.035156 283.039062 594.558594 277.082031 592.109375 272.179688 L 565.679688 219.109375 C 562.878906 213.855469 563.929688 207.375 568.304688 202.996094 L 621.339844 149.925781 C 621.863281 149.402344 622.390625 148.875 622.738281 148.175781 C 678.394531 168.84375 718.652344 228.042969 718.652344 297.75 Z M 718.652344 297.75 " fill-opacity="1" fill-rule="nonzero"/><g clip-path="url(#53f62be1b3)"><path fill="#161616" d="M 36.058594 595.5 L 466.441406 595.5 C 480.042969 595.5 491.121094 584.414062 491.121094 570.804688 L 491.121094 513.234375 L 516.8125 474.683594 C 525.214844 462.285156 523.585938 445.574219 512.945312 434.945312 L 444.582031 366.53125 L 498.980469 298.449219 C 506.871094 288.941406 508.34375 275.558594 502.757812 264.367188 L 477.46875 213.59375 L 528.699219 162.328125 C 534.632812 156.390625 537.90625 148.507812 537.90625 140.117188 C 537.90625 131.726562 534.632812 123.847656 528.714844 117.925781 L 491.136719 80.324219 L 491.136719 24.695312 C 491.136719 11.085938 480.058594 0 466.460938 0 L 36.058594 0 C 16.753906 0 1.054688 15.710938 1.054688 35.03125 L 1.054688 122.601562 C 1.054688 132.289062 8.894531 140.117188 18.554688 140.117188 C 28.21875 140.117188 36.058594 132.289062 36.058594 122.601562 L 36.058594 35.03125 L 456.117188 35.03125 L 456.117188 70.058594 L 158.328125 70.058594 C 144.414062 70.058594 132.636719 79.988281 130.257812 94.140625 C 129.136719 102.09375 125.671875 109.589844 120.332031 115.683594 C 113.644531 123.179688 104.578125 128.171875 95.058594 129.679688 C 81.390625 131.640625 71.082031 143.691406 71.082031 157.683594 L 71.082031 437.816406 C 71.082031 451.808594 81.390625 463.84375 94.796875 465.769531 C 104.578125 467.328125 113.664062 472.320312 120.226562 479.675781 C 125.6875 485.910156 129.152344 493.40625 130.34375 501.832031 C 132.652344 515.511719 144.433594 525.460938 158.347656 525.460938 L 456.132812 525.460938 L 456.132812 560.488281 L 36.058594 560.488281 L 36.058594 192.679688 C 36.058594 182.992188 28.21875 175.164062 18.554688 175.164062 C 8.894531 175.164062 1.054688 182.992188 1.054688 192.679688 L 1.054688 560.488281 C 1.054688 579.808594 16.753906 595.519531 36.058594 595.519531 Z M 450.917969 190.613281 C 441.0625 200.472656 438.769531 215.238281 445 226.921875 L 470.46875 278.046875 L 415.421875 346.949219 C 405.21875 359.488281 406.09375 377.546875 417.488281 388.949219 L 465.917969 437.429688 C 401.945312 432.839844 351.101562 372.046875 351.101562 297.75 C 351.101562 220.492188 406.058594 157.632812 473.617188 157.632812 C 476.804688 157.632812 479.882812 158.210938 483.015625 158.472656 Z M 146.445312 456.488281 C 135.769531 444.507812 121.664062 436.097656 106.066406 432.351562 L 106.066406 163.183594 C 121.558594 159.488281 135.734375 151.03125 146.550781 138.890625 C 155.179688 129.03125 161.09375 117.332031 163.808594 105.089844 L 466.355469 105.089844 L 484.328125 123.09375 C 480.777344 122.832031 477.207031 122.601562 473.601562 122.601562 C 386.753906 122.601562 316.078125 201.175781 316.078125 297.75 C 316.078125 394.328125 386.753906 472.898438 473.601562 472.898438 C 474.40625 472.898438 475.191406 472.773438 476 472.757812 L 464.238281 490.414062 L 163.808594 490.414062 C 161.007812 477.996094 155.09375 466.398438 146.445312 456.46875 Z M 146.445312 456.488281 " fill-opacity="1" fill-rule="nonzero"/></g><g clip-path="url(#ca48b8bf7b)"><path fill="#161616" d="M 1016.191406 0 L 585.808594 0 C 572.210938 0 561.128906 11.085938 561.128906 24.695312 L 561.128906 87.574219 C 561.128906 92.234375 562.96875 96.679688 566.257812 99.957031 L 606.390625 140.117188 L 555.933594 190.613281 C 546.078125 200.472656 543.785156 215.257812 550 226.921875 L 575.464844 278.046875 L 520.417969 346.949219 C 510.214844 359.488281 511.089844 377.546875 522.484375 388.949219 L 591.09375 457.605469 L 564.054688 498.207031 C 562.144531 501.078125 561.113281 504.460938 561.113281 507.925781 L 561.113281 570.804688 C 561.113281 584.414062 572.191406 595.5 585.792969 595.5 L 1016.175781 595.5 C 1035.480469 595.5 1051.179688 579.789062 1051.179688 560.472656 L 1051.179688 35.03125 C 1051.179688 15.710938 1035.480469 0 1016.175781 0 Z M 621.8125 474.683594 C 623.875 471.636719 625.328125 468.308594 626.1875 464.894531 C 691.574219 442.035156 736.15625 375.339844 736.15625 297.769531 C 736.15625 227.902344 699.136719 165.601562 642.691406 137.824219 C 642.148438 130.328125 639.101562 123.320312 633.710938 117.945312 L 620.882812 105.105469 L 888.460938 105.105469 C 891.242188 117.523438 897.140625 129.117188 905.804688 139.050781 C 916.480469 151.03125 930.589844 159.4375 946.183594 163.183594 L 946.183594 432.351562 C 930.695312 436.046875 916.515625 444.507812 905.699219 456.644531 C 897.070312 466.523438 891.136719 478.238281 888.441406 490.449219 L 611.34375 490.449219 L 621.828125 474.71875 Z M 549.613281 366.53125 L 603.976562 298.46875 C 611.886719 288.957031 613.375 275.542969 607.773438 264.367188 L 582.484375 213.59375 L 626.675781 169.367188 C 671.519531 191.171875 701.148438 241.074219 701.148438 297.769531 C 701.148438 359.210938 665.390625 413.714844 614.757812 431.753906 L 549.613281 366.546875 Z M 1016.191406 560.472656 L 596.136719 560.472656 L 596.136719 525.441406 L 893.921875 525.441406 C 907.800781 525.441406 919.597656 515.546875 922.011719 501.339844 C 923.113281 493.40625 926.597656 485.910156 931.917969 479.816406 C 938.605469 472.320312 947.671875 467.328125 957.210938 465.820312 C 970.863281 463.859375 981.171875 451.808594 981.171875 437.816406 L 981.171875 157.683594 C 981.171875 143.691406 970.863281 131.660156 957.472656 129.730469 C 947.671875 128.171875 938.605469 123.179688 932.042969 115.824219 C 926.582031 109.589844 923.113281 102.09375 921.925781 93.597656 C 919.578125 79.953125 907.78125 70.042969 893.902344 70.042969 L 596.117188 70.042969 L 596.117188 35.011719 L 1016.175781 35.066406 L 1016.175781 560.453125 Z M 1016.191406 560.472656 " fill-opacity="1" fill-rule="nonzero"/></g><path fill="#161616" d="M 202.332031 227.691406 C 168.550781 227.691406 141.074219 259.113281 141.074219 297.75 C 141.074219 336.386719 168.550781 367.808594 202.332031 367.808594 C 236.109375 367.808594 263.589844 336.386719 263.589844 297.75 C 263.589844 259.113281 236.109375 227.691406 202.332031 227.691406 Z M 202.332031 332.78125 C 188.101562 332.78125 176.078125 316.738281 176.078125 297.75 C 176.078125 278.765625 188.101562 262.722656 202.332031 262.722656 C 216.558594 262.722656 228.585938 278.765625 228.585938 297.75 C 228.585938 316.738281 216.558594 332.78125 202.332031 332.78125 Z M 202.332031 332.78125 " fill-opacity="1" fill-rule="nonzero"/><path fill="#161616" d="M 911.179688 297.75 C 911.179688 259.113281 883.699219 227.691406 849.921875 227.691406 C 816.140625 227.691406 788.660156 259.113281 788.660156 297.75 C 788.660156 336.386719 816.140625 367.808594 849.921875 367.808594 C 883.699219 367.808594 911.179688 336.386719 911.179688 297.75 Z M 849.921875 332.78125 C 835.691406 332.78125 823.667969 316.738281 823.667969 297.75 C 823.667969 278.765625 835.691406 262.722656 849.921875 262.722656 C 864.148438 262.722656 876.171875 278.765625 876.171875 297.75 C 876.171875 316.738281 864.148438 332.78125 849.921875 332.78125 Z M 849.921875 332.78125 " fill-opacity="1" fill-rule="nonzero"/></svg>